<?xml version="1.0" encoding="UTF-8"?>
<svg version="1.1" xmlns="http://www.w3.org/2000/svg" width="2000" height="460">
<path d="M0 0 C99.66 0 199.32 0 302 0 C302 23.1 302 46.2 302 70 C229.73 70 157.46 70 83 70 C83 105.64 83 141.28 83 178 C137.12 178 191.24 178 247 178 C247 200.44 247 222.88 247 246 C192.88 246 138.76 246 83 246 C83 283.29 83 320.58 83 359 C155.27 359 227.54 359 302 359 C302 382.1 302 405.2 302 429 C202.34 429 102.68 429 0 429 C0 287.43 0 145.86 0 0 Z " fill="#FEF1F3" transform="translate(18,19)"/>
<path d="M0 0 C26.07 0 52.14 0 79 0 C79.33 53.46 79.66 106.92 80 162 C82.64 159.36 85.28 156.72 88 154 C90.30278511 152.21384875 92.50928496 150.57739965 94.9375 149 C95.57300781 148.58411621 96.20851563 148.16823242 96.86328125 147.73974609 C108.77592763 140.15238693 121.17609575 134.92814025 135 132 C136.44052734 131.66355469 136.44052734 131.66355469 137.91015625 131.3203125 C166.44295059 125.71359921 199.26233542 130.50641008 224 146 C227.76852745 148.5447273 231.4095161 151.21069846 235 154 C235.58394531 154.44085938 236.16789062 154.88171875 236.76953125 155.3359375 C241.07915626 158.72450809 244.55602573 162.76632462 248 167 C248.61746094 167.75667969 249.23492188 168.51335937 249.87109375 169.29296875 C279.22966656 207.39413468 277.16955164 254.7945171 277.10139394 300.37597418 C277.09506641 305.33399153 277.09454927 310.29200975 277.09336853 315.25003052 C277.09028255 324.60266053 277.0821067 333.95527861 277.07201904 343.30790341 C277.05866179 355.97161077 277.05333587 368.63532148 277.04751682 381.29903412 C277.03816442 401.19936499 277.01822745 421.09967069 277 441 C249.28 441 221.56 441 193 441 C192.93941406 428.19445312 192.87882812 415.38890625 192.81640625 402.1953125 C192.77591192 394.08333024 192.73517771 385.97135036 192.69335938 377.859375 C192.62702667 364.98341032 192.56167397 352.10744601 192.50268555 339.23144531 C192.45971832 329.85353828 192.41340925 320.47565466 192.36312145 311.09778392 C192.33662122 306.1343205 192.31177125 301.17086142 192.29092598 296.20737076 C192.27123169 291.53053091 192.24705116 286.8537352 192.21950912 282.1769352 C192.21020599 280.46538285 192.20250706 278.75382087 192.19658089 277.04225349 C192.1177438 254.94392918 190.4143188 232.11875386 174.45703125 215.26171875 C161.62682982 203.45140615 145.98862721 202.36371744 129.390625 202.86376953 C115.70910401 203.64341503 104.1896586 210.08321353 95 220 C81.39628729 237.17667227 79.54541987 259.29002368 79.56762695 280.36157227 C79.5585828 282.12761101 79.54824922 283.89364355 79.53674316 285.65966797 C79.50945814 290.3961307 79.49992796 295.13247344 79.49388909 299.86900449 C79.48443023 304.84044617 79.45822154 309.81180078 79.43388367 314.78318787 C79.39041979 324.17137715 79.36174986 333.55954933 79.33856028 342.94780821 C79.3063091 355.65241524 79.25086944 368.35692053 79.19681454 381.06145 C79.11241041 401.04093617 79.05869809 421.02038345 79 441 C52.93 441 26.86 441 0 441 C0 295.47 0 149.94 0 0 Z " fill="#FB90A0" transform="translate(873,7)"/>
<path d="M0 0 C11.7262438 -0.25522258 23.45182389 -0.45049518 35.18028259 -0.56993389 C40.62688503 -0.62726982 46.07158339 -0.70498723 51.51708984 -0.82983398 C56.77572219 -0.94963747 62.03252747 -1.0151818 67.29241943 -1.04364967 C69.29568245 -1.06392658 71.29884879 -1.1035277 73.30133057 -1.16303062 C88.99526357 -1.61068745 88.99526357 -1.61068745 93.96661377 2.38349915 C96.03106645 5.18157471 97.54554617 7.85024273 99 11 C99.82924412 12.32633343 100.67347581 13.64372369 101.546875 14.94140625 C102.2845892 16.14639954 103.01892357 17.35346802 103.75 18.5625 C107.16839947 24.11418636 110.67705228 29.58801073 114.3125 35 C121.04192775 45.02037892 127.65159722 55.11831779 134.26293945 65.21679688 C140.1303996 74.17477548 146.04673825 83.09881317 152 92 C155.73442804 88.61562417 158.21294941 84.81335442 160.87109375 80.5859375 C161.85184557 79.04860706 162.83349615 77.51184971 163.81591797 75.97558594 C164.33353699 75.16424194 164.85115601 74.35289795 165.38446045 73.51696777 C168.14930469 69.20941378 170.96759347 64.93724733 173.78515625 60.6640625 C174.37686615 59.76596863 174.96857605 58.86787476 175.57821655 57.94256592 C176.79554224 56.09544105 178.01320665 54.24853938 179.23120117 52.40185547 C181.64071181 48.74823942 184.04992018 45.09446438 186.44781494 41.43321228 C187.68032643 39.57563203 188.9342863 37.7321187 190.20843506 35.90284729 C193.41619067 31.24404667 196.21509676 26.7288043 198.46322536 21.52354717 C201.99894567 13.40122467 206.01894849 4.58114341 214 0 C227.56368111 -4.77948726 243.8135141 -2.6534622 257.88366699 -1.85394287 C263.31152019 -1.5752219 268.7428018 -1.4539179 274.17578125 -1.31835938 C284.79284298 -1.03071212 295.39468848 -0.57149976 306 0 C304.78113638 3.13768837 303.63768855 5.76563983 301.56640625 8.42578125 C301.08816406 9.0489624 300.60992188 9.67214355 300.1171875 10.31420898 C299.60414063 10.97364502 299.09109375 11.63308105 298.5625 12.3125 C294.39739859 17.76288647 290.35772887 23.26511578 286.5 28.9375 C282.7338524 34.47140348 278.92938784 39.97339214 275.0625 45.4375 C274.56363281 46.14253662 274.06476563 46.84757324 273.55078125 47.57397461 C272.53948527 49.00246276 271.5279288 50.43076652 270.51611328 51.85888672 C268.00656077 55.40297296 265.50359782 58.9517061 263 62.5 C262.00003196 63.91668922 261.00003195 65.33335588 260 66.75 C259.2575 67.801875 259.2575 67.801875 258.5 68.875 C253 76.66666667 247.5 84.45833333 242 92.25 C241.50508057 92.95116943 241.01016113 93.65233887 240.50024414 94.37475586 C239.49955812 95.79232654 238.49874417 97.20980692 237.49780273 98.62719727 C235.00724549 102.15430572 232.51888408 105.68292217 230.03515625 109.21484375 C225.37531053 115.83620573 220.69495048 122.4394188 215.93554688 128.98974609 C213.77061305 131.97311522 211.61909083 134.96598839 209.47021484 137.9609375 C208.52624822 139.27013864 207.57652495 140.57521903 206.61962891 141.875 C205.41748025 143.50886453 204.23903041 145.1600924 203.0625 146.8125 C202.41410156 147.70582031 201.76570313 148.59914063 201.09765625 149.51953125 C199.75662394 151.91054298 199.75662394 151.91054298 200.4453125 154.28125 C202.70233609 158.22820583 205.21634128 161.95670415 207.8125 165.6875 C208.3885498 166.5225708 208.96459961 167.3576416 209.55810547 168.21801758 C214.04101823 174.68907353 218.63504525 181.07642349 223.26513672 187.44262695 C227.18936068 192.84685408 231.00595207 198.3150431 234.77270508 203.82983398 C240.17859743 211.74120365 245.6901801 219.57816495 251.19287109 227.42236328 C252.9911083 229.98731713 254.78700256 232.55389366 256.58203125 235.12109375 C262.03904221 242.925182 267.50353259 250.72363856 273 258.5 C282.19488026 271.51393811 291.35019884 284.55484972 300.375 297.6875 C300.94081787 298.50782715 301.50663574 299.3281543 302.08959961 300.17333984 C302.60401611 300.92437988 303.11843262 301.67541992 303.6484375 302.44921875 C304.10395996 303.11268311 304.55948242 303.77614746 305.02880859 304.4597168 C306 306 306 306 306 307 C294.17835236 307.34835223 282.35793447 307.61446073 270.53219032 307.77718258 C265.03995499 307.85530743 259.55124243 307.96114251 254.06103516 308.1315918 C248.75684765 308.29522528 243.45603444 308.38438432 238.14951706 308.42315865 C236.13091255 308.45076593 234.1124826 308.50468911 232.09532547 308.58595085 C216.75364103 309.17911347 216.75364103 309.17911347 212.22097206 305.59215355 C209.05594644 302.05804457 206.90451036 298.07381661 204.87872314 293.8082943 C203.77089115 291.52852474 202.41580345 289.48805455 200.96655273 287.41186523 C200.12175636 286.1277549 199.27743249 284.84333358 198.43359375 283.55859375 C197.72343613 282.47865898 197.72343613 282.47865898 196.99893188 281.37690735 C195.99454092 279.84942544 194.99035139 278.32181106 193.98635864 276.79406738 C192.39383369 274.3710623 190.80040677 271.94865239 189.20678711 269.52636719 C184.01701441 261.63697344 178.83122015 253.74500371 173.65446472 245.84706116 C171.34720919 242.32750636 169.03821273 238.80909548 166.72903442 235.290802 C165.62111422 233.60166446 164.51407363 231.91194964 163.40792847 230.22164917 C161.86913888 227.87031666 160.32746573 225.52089965 158.78515625 223.171875 C158.32799225 222.47161697 157.87082825 221.77135895 157.39981079 221.04988098 C155.7272128 218.50722367 154.15835776 216.15835776 152 214 C151.39414063 214.98097656 150.78828125 215.96195313 150.1640625 216.97265625 C145.54478282 224.42388892 140.84639937 231.80483772 135.95678711 239.08154297 C132.48588361 244.2528487 129.07775185 249.46300396 125.6875 254.6875 C125.13916504 255.53223877 124.59083008 256.37697754 124.02587891 257.24731445 C121.80817154 260.66571406 119.59215709 264.08520463 117.37792969 267.50585938 C111.05699202 277.27003455 104.69580714 287.00516615 98.25 296.6875 C97.64099854 297.60329834 97.03199707 298.51909668 96.40454102 299.46264648 C95.56234009 300.72443726 95.56234009 300.72443726 94.703125 302.01171875 C94.20458008 302.75897217 93.70603516 303.50622559 93.19238281 304.27612305 C92 306 92 306 91 307 C88.16959328 307.09520906 85.36365007 307.12553631 82.53295898 307.11352539 C81.64523804 307.11367142 80.75751709 307.11381744 79.84289551 307.1139679 C76.89393716 307.11326843 73.94504113 307.10547448 70.99609375 307.09765625 C68.95728083 307.09579219 66.91846746 307.09436823 64.87965393 307.09336853 C59.50215426 307.08954241 54.12468142 307.07971132 48.74719238 307.06866455 C43.26440799 307.05845245 37.78161928 307.05387134 32.29882812 307.04882812 C21.53254027 307.03808914 10.76627236 307.02101159 0 307 C1.29406104 303.66765673 2.61823924 300.85942582 4.6953125 297.9453125 C5.50911377 296.79421997 5.50911377 296.79421997 6.33935547 295.61987305 C6.92861816 294.79656494 7.51788086 293.97325684 8.125 293.125 C9.40148854 291.32193086 10.67751233 289.51853264 11.953125 287.71484375 C12.95182617 286.3069458 12.95182617 286.3069458 13.97070312 284.87060547 C17.29941684 280.1618692 20.58633976 275.4242551 23.875 270.6875 C25.22387998 268.74734136 26.57283891 266.8072376 27.921875 264.8671875 C29.28128745 262.91148436 30.64066237 260.95575514 32 259 C40.21978709 247.17373217 48.44600752 235.35229484 56.71142578 223.55786133 C61.83582132 216.24236994 66.93555784 208.9098519 72.0324707 201.57519531 C75.82483875 196.11991034 79.62712454 190.67186565 83.4453125 185.23461914 C85.16019592 182.78893969 86.86740829 180.33803637 88.57421875 177.88671875 C90.9586309 174.46728794 93.38452864 171.08155254 95.83203125 167.70703125 C97.05493875 165.99236666 98.27760342 164.27752886 99.5 162.5625 C100.08289795 161.77520508 100.6657959 160.98791016 101.26635742 160.17675781 C102.04716675 159.07025879 102.04716675 159.07025879 102.84375 157.94140625 C103.30974609 157.29888916 103.77574219 156.65637207 104.25585938 155.99438477 C105.24554916 153.93876051 105.24554916 153.93876051 104.30761719 151.51367188 C103.07611955 149.1463269 101.78035318 147.01275649 100.234375 144.83984375 C99.68088379 144.05601318 99.12739258 143.27218262 98.55712891 142.46459961 C97.96077637 141.63065674 97.36442383 140.79671387 96.75 139.9375 C95.48159174 138.14596011 94.21336796 136.35428961 92.9453125 134.5625 C91.96739746 133.18578125 91.96739746 133.18578125 90.96972656 131.78125 C88.43521671 128.20252711 85.92636422 124.60625466 83.41821289 121.0090332 C79.26498912 115.05315765 75.10887976 109.1039268 70.8125 103.25 C67.21322332 98.34397955 63.77553178 93.33577039 60.34033203 88.31445312 C56.51091152 82.72394371 52.61758389 77.18117627 48.70117188 71.65136719 C44.69441328 65.99188513 40.71955005 60.31062523 36.75 54.625 C33.14749151 49.46719361 29.53615994 44.32148778 25.8125 39.25 C21.71545963 33.66233431 17.80583583 27.95143323 13.8984375 22.23046875 C11.89946431 19.30452477 9.88203777 16.39244962 7.8515625 13.48828125 C7.34278564 12.75762451 6.83400879 12.02696777 6.30981445 11.27416992 C5.32755281 9.86428093 4.34182438 8.45679958 3.35229492 7.05200195 C0 2.2246727 0 2.2246727 0 0 Z " fill="#F72F4E" transform="translate(1672,141)"/>
<path d="M0 0 C0.74813965 0.16097168 1.4962793 0.32194336 2.26708984 0.48779297 C18.82769695 4.18648252 34.93527356 11.03155868 48 22 C48.84691406 22.70898438 49.69382812 23.41796875 50.56640625 24.1484375 C63.72547615 35.59984184 74.85084203 49.50907636 81 66 C81 66.99 81 67.98 81 69 C66.96474389 73.38023378 52.86528039 77.53763449 38.73822021 81.61071777 C36.83118166 82.1613934 34.92480556 82.71436844 33.019104 83.26965332 C30.30365314 84.06006847 27.58581115 84.84167154 24.8671875 85.62109375 C23.63714996 85.98155037 23.63714996 85.98155037 22.38226318 86.34928894 C14.91959716 88.46923757 14.91959716 88.46923757 11 88 C9.69921875 86.49609375 9.69921875 86.49609375 8.6875 84.4375 C3.31295541 74.94806971 -5.42701444 70.19663935 -15.625 67.3125 C-32.27844677 62.94158069 -50.40321078 63.34700606 -65.8046875 71.54296875 C-70.42913397 74.61221881 -73.89552007 78.86203548 -76 84 C-76.75182036 89.70858945 -76.86044875 95.57148607 -73.49609375 100.44921875 C-62.88676187 111.44635911 -43.65063211 113.96087278 -29.37548828 117.44903564 C57.63575046 138.83305546 57.63575046 138.83305546 79 173 C85.37189292 184.79302995 89.24062018 197.58428989 90 211 C90.07927734 212.29744141 90.07927734 212.29744141 90.16015625 213.62109375 C90.89179823 237.06544775 81.91007545 258.34351029 66.30078125 275.60546875 C44.17170396 299.00397623 9.81643389 310.95289544 -21.90396118 312.06686401 C-60.94391189 313.10621318 -60.94391189 313.10621318 -79 309 C-79.84159668 308.81195801 -80.68319336 308.62391602 -81.55029297 308.43017578 C-99.62772941 304.21668837 -117.68327106 297.04970818 -132 285 C-132.75925781 284.40058594 -133.51851562 283.80117188 -134.30078125 283.18359375 C-150.45010255 269.82344711 -159.48286029 250.81154715 -165 231 C-165 230.01 -165 229.02 -165 228 C-141.47265409 220.50486803 -117.76113748 213.70956978 -94 207 C-93.49774902 208.22541504 -93.49774902 208.22541504 -92.98535156 209.47558594 C-92.5415918 210.55098633 -92.09783203 211.62638672 -91.640625 212.734375 C-91.20266602 213.79881836 -90.76470703 214.86326172 -90.31347656 215.95996094 C-85.78157503 226.44903862 -78.39039001 234.15719364 -67.88671875 238.90234375 C-50.092797 245.66836812 -28.7938195 247.32378295 -10.984375 239.7109375 C-3.57731044 236.00740522 1.62902361 231.71291638 4.875 224 C7.03031762 217.26301917 6.16111777 211.75749209 3.37890625 205.359375 C1.03386945 201.3469041 -2.00598264 199.2560064 -6 197 C-6.73476563 196.58363281 -7.46953125 196.16726563 -8.2265625 195.73828125 C-21.01959392 189.30115274 -35.76820023 186.48209039 -49.625 183.25 C-59.40404404 180.95471988 -69.10356514 178.41880775 -78.77337646 175.70373535 C-80.26904373 175.28476507 -81.76579424 174.86963767 -83.26373291 174.4588623 C-104.77406253 168.54250107 -130.54264275 158.84030015 -144 140 C-144 139.34 -144 138.68 -144 138 C-144.66 138 -145.32 138 -146 138 C-151.14776629 129.55366501 -155.25688005 121.57204487 -158 112 C-158.4125 110.88625 -158.825 109.7725 -159.25 108.625 C-163.37113133 88.70619855 -158.11220332 64.6674314 -148.13671875 47.2265625 C-130.89113877 21.18479091 -103.02876672 6.23033519 -73 0 C-71.82872559 -0.24556641 -71.82872559 -0.24556641 -70.63378906 -0.49609375 C-47.979072 -5.00282744 -22.54416035 -5.00153546 0 0 Z " fill="#FCAFBB" transform="translate(736,140)"/>
<path d="M0 0 C1 1 1 1 1.12025452 3.77772522 C1.11803391 5.01904709 1.11581329 6.26036896 1.11352539 7.53930664 C1.11367142 8.22220261 1.11381744 8.90509857 1.1139679 9.60868835 C1.11326876 11.87587614 1.1054764 14.14298274 1.09765625 16.41015625 C1.09579207 17.97814387 1.09436817 19.54613207 1.09336853 21.11412048 C1.08954334 25.24876503 1.07971306 29.38337466 1.06866455 33.51800537 C1.05845044 37.73400398 1.05387091 41.95000822 1.04882812 46.16601562 C1.03809079 54.44402647 1.02101436 62.7220089 1 71 C0.36693939 70.99181747 -0.26612122 70.98363495 -0.91836548 70.97520447 C-3.81273941 70.94253603 -6.70707439 70.92233804 -9.6015625 70.90234375 C-10.59744385 70.88925171 -11.5933252 70.87615967 -12.61938477 70.8626709 C-22.98029323 70.80899856 -30.74428056 72.75430042 -38.3515625 80.09765625 C-47.57515089 90.74193954 -47.48221044 105.94404723 -47.6875 119.25 C-47.790625 124.4475 -47.89375 129.645 -48 135 C-30.84 135 -13.68 135 4 135 C4 158.1 4 181.2 4 205 C-13.16 205 -30.32 205 -48 205 C-48 283.21 -48 361.42 -48 442 C-74.4 442 -100.8 442 -128 442 C-128 363.79 -128 285.58 -128 205 C-139.88 205 -151.76 205 -164 205 C-164 181.9 -164 158.8 -164 135 C-152.12 135 -140.24 135 -128 135 C-128.02320313 132.20015625 -128.04640625 129.4003125 -128.0703125 126.515625 C-128.08602044 123.72852021 -128.09810128 120.94142081 -128.10986328 118.15429688 C-128.11976793 116.25388288 -128.13329528 114.35348346 -128.15087891 112.453125 C-128.24211782 102.32023867 -128.12338087 92.26748121 -127.1796875 82.171875 C-127.1100882 81.37944397 -127.04048889 80.58701294 -126.96878052 79.77056885 C-126.38105698 74.20371177 -124.92763447 69.24175712 -123 64 C-122.5450062 62.68163306 -122.09159039 61.36271909 -121.640625 60.04296875 C-116.92766524 46.79801409 -110.86334472 36.1649218 -101 26 C-100.44828125 25.37480469 -99.8965625 24.74960937 -99.328125 24.10546875 C-76.43406807 -0.99865804 -31.69745521 -5.3378251 0 0 Z " fill="#F96E84" transform="translate(1350,6)"/>
<path d="M0 0 C26.4 0 52.8 0 80 0 C80 28.05 80 56.1 80 85 C102.44 85 124.88 85 148 85 C148 108.1 148 131.2 148 155 C125.56 155 103.12 155 80 155 C80.09068958 178.70126006 80.09068958 178.70126006 80.20898438 202.40234375 C80.2633805 212.07371287 80.31479728 221.74502998 80.34643555 231.41650391 C80.36949612 238.46158127 80.40298318 245.50652105 80.44870156 252.55148911 C80.4725258 256.27760968 80.49132495 260.00359489 80.49761391 263.72978973 C80.50485144 267.90176084 80.53537927 272.07326433 80.56762695 276.24511719 C80.56619186 277.46432358 80.56475677 278.68352997 80.5632782 279.93968201 C80.69020913 291.60616398 82.29007693 302.94555766 90.59765625 311.6796875 C101.71248995 321.85773567 114.5211326 322.36197169 129 322 C135.27 321.67 141.54 321.34 148 321 C148 343.44 148 365.88 148 389 C124.41531043 394.05386205 96.68862131 396.41963368 73 390 C71.89712646 389.70198486 71.89712646 389.70198486 70.77197266 389.39794922 C46.07869678 382.44466441 26.62508461 369.30830646 13.86694336 346.57910156 C2.83707193 326.03524775 -0.17909872 303.15510642 -0.11352539 280.10498047 C-0.11324272 278.73406476 -0.11340281 277.3631489 -0.1139679 275.99223328 C-0.11425276 272.30078089 -0.10840651 268.60936154 -0.10139394 264.91791677 C-0.09510844 261.04888677 -0.09455251 257.17985586 -0.09336853 253.31082153 C-0.09027046 245.99775008 -0.08207775 238.68469371 -0.07201904 231.37162888 C-0.0608104 223.04023957 -0.05533552 214.7088495 -0.05032361 206.37745452 C-0.03989375 189.25162614 -0.02156737 172.12581853 0 155 C-14.19 155 -28.38 155 -43 155 C-43 131.9 -43 108.8 -43 85 C-28.81 85 -14.62 85 0 85 C0 56.95 0 28.9 0 0 Z " fill="#FDCBD3" transform="translate(396,56)"/>
<path d="M0 0 C26.07 0 52.14 0 79 0 C79 145.53 79 291.06 79 441 C52.93 441 26.86 441 0 441 C0 295.47 0 149.94 0 0 Z " fill="#F95E76" transform="translate(1391,7)"/>
<path d="M0 0 C26.07 0 52.14 0 79 0 C79 101.31 79 202.62 79 307 C52.93 307 26.86 307 0 307 C0 205.69 0 104.38 0 0 Z " fill="#F84D68" transform="translate(1543,141)"/>
<path d="M0 0 C2.54654136 2.11094876 4.86388202 4.26238628 7.078125 6.72265625 C7.55765625 7.18671875 8.0371875 7.65078125 8.53125 8.12890625 C17.11116248 16.96881608 19.43641948 29.59746229 19.2890625 41.50390625 C18.42723192 54.65480246 12.5518547 65.68125945 3.078125 74.72265625 C-9.44021502 85.20462246 -22.946258 87.56098071 -38.921875 86.72265625 C-48.51451745 85.53717096 -55.95052872 82.09307988 -63.921875 76.72265625 C-64.52773437 76.33335938 -65.13359375 75.9440625 -65.7578125 75.54296875 C-75.15839353 68.72879097 -80.15536621 55.53201852 -82.234375 44.53515625 C-82.88472349 39.96529676 -82.97513336 36.25976917 -81.921875 31.72265625 C-81.67630859 30.40201172 -81.67630859 30.40201172 -81.42578125 29.0546875 C-78.84395513 16.65871488 -72.68666362 6.05885962 -62.19921875 -1.1484375 C-43.47266004 -12.77098555 -18.00054395 -13.67460677 0 0 Z " fill="#F94D68" transform="translate(1613.921875,16.27734375)"/>
<path d="M0 0 C19.47 0 38.94 0 59 0 C59 0.33 59 0.66 59 1 C41.18 1 23.36 1 5 1 C5.33 1.99 5.66 2.98 6 4 C4.68 4.33 3.36 4.66 2 5 C1.34 3.35 0.68 1.7 0 0 Z " fill="#F94863" transform="translate(1672,141)"/>
<path d="M0 0 C2.475 0.495 2.475 0.495 5 1 C5.33 1.99 5.66 2.98 6 4 C4.68 4.33 3.36 4.66 2 5 C1.34 3.35 0.68 1.7 0 0 Z " fill="#F83F5C" transform="translate(1672,141)"/>
</svg>
